<svg xmlns="http://www.w3.org/2000/svg" width="24" height="24" viewBox="0 0 24 24">
  <defs>
    <style>
      .cls-1 {
        fill: #4574d5;
      }

      .cls-2 {
        fill: #fff;
      }
    </style>
  </defs>
  <g id="联系方式" transform="translate(-12 -164)">
    <path id="多边形_16" data-name="多边形 16" class="cls-1" d="M18,0l6,12L18,24H6L0,12,6,0Z" transform="translate(36 164) rotate(90)"/>
    <path id="路径_6105" data-name="路径 6105" class="cls-2" d="M12.379,3.649a5.844,5.844,0,0,0-1.387-1.863A6.5,6.5,0,0,0,8.945.537a7.066,7.066,0,0,0-5,0A6.5,6.5,0,0,0,1.9,1.786,5.843,5.843,0,0,0,.511,3.649,5.37,5.37,0,0,0,0,5.939a5.619,5.619,0,0,0,2.075,4.307A6.636,6.636,0,0,1,.142,11.84a.293.293,0,0,0,.151.544,10.45,10.45,0,0,0,2.437-.264,6.275,6.275,0,0,0,1.644-.632,7.018,7.018,0,0,0,2.071.31,6.967,6.967,0,0,0,2.5-.457,6.494,6.494,0,0,0,2.047-1.249A5.842,5.842,0,0,0,12.379,8.23a5.389,5.389,0,0,0,0-4.581ZM3.516,6.525A.586.586,0,1,1,4.1,5.939a.586.586,0,0,1-.586.586m2.93,0a.586.586,0,1,1,.414-.172.586.586,0,0,1-.414.172m2.93,0a.586.586,0,1,1,.586-.586.586.586,0,0,1-.586.586" transform="translate(17.883 169.564)"/>
  </g>
</svg>
